# xmcd
#
# Track frame offsets:
# 150
# 4268
# 14351
# 40876
# 59057
# 78601
# 104172
# 125801
# 128888
# 151820
# 165859
# 187942
# 209054
# 234390
#
# Disc length: 3162 seconds
#
#
# Revision: 0
# Processed by: cddbd v1.5.2PL0 Copyright (c) Steve Scherf et al.
# Submitted via: FreeRIP 2.951 
#
DISCID=c00c580e
DTITLE=The Coup - Genocide And Juice
DYEAR=1900
DGENRE=Hip-Hop
TTITLE0=Intro(GNut Talks Shit From The Gut)
TTITLE1=ThreeSixty Degrees
TTITLE2=Fat Cats bigger fish
TTITLE3=gunsmoke
TTITLE4=Hard Concrete
TTITLE5=Hip To Tha Scheme
TTITLE6=Interrogation
TTITLE7=Outro
TTITLE8=Pimps(Freestylin at Fortune500 club)
TTITLE9=Repo Man
TTITLE10=Santa Rita Weekend
TTITLE11=Takin These
TTITLE12=The Name Game
TTITLE13=This Ones A Girl
EXTD=
EXTT0=
EXTT1=
EXTT2=
EXTT3=
EXTT4=
EXTT5=
EXTT6=
EXTT7=
EXTT8=
EXTT9=
EXTT10=
EXTT11=
EXTT12=
EXTT13=
PLAYORDER=
